<svg xmlns="http://www.w3.org/2000/svg" version="1.1" xmlns:xlink="http://www.w3.org/1999/xlink" xmlns:svgjs="http://svgjs.dev/svgjs" width="1500" height="393" viewBox="0 0 1500 393"><g transform="matrix(1,0,0,1,-1.068980690223725,3.014459688505184)"><svg viewBox="0 0 396 104" data-background-color="#ffffff" preserveAspectRatio="xMidYMid meet" height="393" width="1500" xmlns="http://www.w3.org/2000/svg" xmlns:xlink="http://www.w3.org/1999/xlink"><g id="tight-bounds" transform="matrix(1,0,0,1,0.2822109022190489,0.07188778702800391)"><svg viewBox="0 0 395.52 103.86094818848282" height="103.86094818848282" width="395.52"><g><svg viewBox="0 0 528.5923223967628 138.80486399999998" height="103.86094818848282" width="395.52"><g transform="matrix(1,0,0,1,133.07232239676284,42.89271771428571)"><svg viewBox="0 0 395.52 53.01942857142857" height="53.01942857142857" width="395.52"><g id="textblocktransform"><svg viewBox="0 0 395.52 53.01942857142857" height="53.01942857142857" width="395.52" id="textblock"><g><svg viewBox="0 0 395.52 53.01942857142857" height="53.01942857142857" width="395.52"><g transform="matrix(1,0,0,1,0,0)"><svg width="395.52" viewBox="0.27 -41.19 352.02000000000004 47.199999999999996" height="53.01942857142857" data-palette-color="#336a86"><path d="M29.05-28.2L17.94 0 10.52 0 0.27-28.2 8.52-28.2 16.04-5.74 23.34-28.2 29.05-28.2ZM61.77-14.16L61.77-14.16Q61.77-11.96 61.18-10.03 60.59-8.11 59.56-6.47 58.52-4.83 57.05-3.53 55.59-2.22 53.84-1.32 52.1-0.42 50.11 0.07 48.12 0.56 46.02 0.56L46.02 0.56Q43.92 0.56 41.94 0.07 39.96-0.42 38.22-1.32 36.47-2.22 35.01-3.53 33.54-4.83 32.5-6.47 31.47-8.11 30.88-10.05 30.3-11.99 30.3-14.16L30.3-14.16Q30.3-16.33 30.88-18.27 31.47-20.21 32.5-21.85 33.54-23.49 35.01-24.79 36.47-26.1 38.22-27 39.96-27.91 41.94-28.39 43.92-28.88 46.02-28.88L46.02-28.88Q48.12-28.88 50.11-28.39 52.1-27.91 53.84-27 55.59-26.1 57.05-24.79 58.52-23.49 59.56-21.85 60.59-20.21 61.18-18.27 61.77-16.33 61.77-14.16ZM53.37-14.16L53.37-14.16Q53.37-15.33 53.23-16.64 53.1-17.94 52.78-19.2 52.46-20.46 51.91-21.62 51.36-22.78 50.56-23.65 49.75-24.51 48.63-25.04 47.51-25.56 46.02-25.56L46.02-25.56Q44.6-25.56 43.5-25.02 42.4-24.49 41.59-23.6 40.77-22.71 40.22-21.53 39.67-20.36 39.33-19.1 38.99-17.85 38.84-16.56 38.69-15.28 38.69-14.16L38.69-14.16Q38.69-13.04 38.84-11.76 38.99-10.47 39.33-9.2 39.67-7.93 40.22-6.77 40.77-5.62 41.59-4.72 42.4-3.83 43.5-3.3 44.6-2.76 46.02-2.76L46.02-2.76Q47.48-2.76 48.61-3.28 49.73-3.81 50.55-4.69 51.36-5.57 51.9-6.71 52.44-7.86 52.77-9.13 53.1-10.4 53.23-11.69 53.37-12.99 53.37-14.16ZM75.63-35.01L75.63-35.01Q75.63-34.08 75.28-33.25 74.92-32.42 74.31-31.81 73.7-31.2 72.87-30.85 72.04-30.49 71.11-30.49L71.11-30.49Q70.19-30.49 69.37-30.85 68.55-31.2 67.94-31.81 67.33-32.42 66.97-33.25 66.62-34.08 66.62-35.01L66.62-35.01Q66.62-35.94 66.97-36.76 67.33-37.57 67.94-38.18 68.55-38.79 69.37-39.15 70.19-39.5 71.11-39.5L71.11-39.5Q72.04-39.5 72.87-39.15 73.7-38.79 74.31-38.18 74.92-37.57 75.28-36.76 75.63-35.94 75.63-35.01ZM75.26-28.17L75.26 0 66.99 0 66.99-28.17 75.26-28.17ZM108.2-21.22L108.2-21.22 104.63-19.8Q103.78-22.49 101.77-23.93 99.77-25.37 96.97-25.37L96.97-25.37Q95.45-25.37 94.27-24.89 93.08-24.41 92.19-23.58 91.3-22.75 90.68-21.66 90.06-20.56 89.67-19.31 89.27-18.07 89.1-16.74 88.93-15.41 88.93-14.16L88.93-14.16Q88.93-12.82 89.08-11.45 89.23-10.08 89.58-8.83 89.93-7.57 90.52-6.48 91.11-5.4 92-4.59 92.89-3.78 94.12-3.32 95.35-2.86 96.97-2.86L96.97-2.86Q98.26-2.86 99.43-3.25 100.6-3.64 101.58-4.35 102.56-5.05 103.31-6.03 104.07-7.01 104.51-8.2L104.51-8.2 108.1-6.88Q107.29-4.96 105.96-3.55 104.63-2.15 102.95-1.23 101.26-0.32 99.33 0.12 97.4 0.56 95.43 0.56L95.43 0.56Q92.23 0.56 89.49-0.52 86.76-1.61 84.77-3.58 82.78-5.54 81.66-8.24 80.53-10.94 80.53-14.16L80.53-14.16Q80.53-17.41 81.65-20.12 82.76-22.83 84.73-24.78 86.71-26.73 89.45-27.81 92.18-28.88 95.43-28.88L95.43-28.88Q97.48-28.88 99.43-28.43 101.38-27.98 103.06-27.04 104.73-26.1 106.06-24.66 107.39-23.22 108.2-21.22ZM119.86-13.38L119.86-13.38Q121.38-13.04 122.89-12.84 124.4-12.65 125.94-12.65L125.94-12.65Q127.55-12.65 128.93-12.95 130.31-13.26 131.33-13.98 132.34-14.7 132.92-15.89 133.51-17.09 133.51-18.87L133.51-18.87Q133.51-20.31 133.12-21.51 132.73-22.71 131.96-23.56 131.19-24.41 130.07-24.89 128.95-25.37 127.46-25.37L127.46-25.37Q126.06-25.37 124.95-24.85 123.84-24.34 123-23.47 122.16-22.61 121.56-21.46 120.96-20.31 120.57-19.07 120.18-17.82 120.01-16.55 119.84-15.28 119.84-14.16L119.84-14.16Q119.84-13.96 119.84-13.77 119.84-13.57 119.86-13.38ZM140.2-18.95L140.2-18.95Q140.2-17.21 139.64-15.86 139.08-14.5 138.11-13.48 137.15-12.45 135.88-11.74 134.61-11.04 133.17-10.58 131.73-10.13 130.2-9.94 128.68-9.74 127.24-9.74L127.24-9.74Q125.41-9.74 123.62-10 121.84-10.25 120.11-10.82L120.11-10.82Q120.38-9.2 120.96-7.75 121.55-6.3 122.52-5.21 123.5-4.13 124.93-3.49 126.36-2.86 128.31-2.86L128.31-2.86Q129.6-2.86 130.78-3.25 131.95-3.64 132.92-4.35 133.9-5.05 134.65-6.03 135.39-7.01 135.85-8.2L135.85-8.2 139.42-6.88Q138.61-4.96 137.21-3.55 135.81-2.15 134.04-1.23 132.27-0.32 130.28 0.12 128.29 0.56 126.33 0.56L126.33 0.56Q123.11 0.56 120.38-0.52 117.64-1.61 115.66-3.56 113.69-5.52 112.56-8.23 111.44-10.94 111.44-14.16L111.44-14.16Q111.44-17.38 112.56-20.09 113.69-22.8 115.66-24.76 117.64-26.71 120.38-27.8 123.11-28.88 126.33-28.88L126.33-28.88Q127.9-28.88 129.53-28.66 131.17-28.44 132.7-27.97 134.24-27.49 135.61-26.73 136.98-25.98 137.99-24.87 139-23.75 139.6-22.29 140.2-20.83 140.2-18.95ZM185.53-21.22L185.53-21.22 181.97-19.8Q181.11-22.49 179.11-23.93 177.11-25.37 174.3-25.37L174.3-25.37Q172.79-25.37 171.6-24.89 170.42-24.41 169.53-23.58 168.64-22.75 168.01-21.66 167.39-20.56 167-19.31 166.61-18.07 166.44-16.74 166.27-15.41 166.27-14.16L166.27-14.16Q166.27-12.82 166.42-11.45 166.56-10.08 166.92-8.83 167.27-7.57 167.86-6.48 168.44-5.4 169.33-4.59 170.22-3.78 171.46-3.32 172.69-2.86 174.3-2.86L174.3-2.86Q175.6-2.86 176.77-3.25 177.94-3.64 178.92-4.35 179.89-5.05 180.65-6.03 181.41-7.01 181.85-8.2L181.85-8.2 185.43-6.88Q184.63-4.96 183.3-3.55 181.97-2.15 180.28-1.23 178.6-0.32 176.67 0.12 174.74 0.56 172.76 0.56L172.76 0.56Q169.57 0.56 166.83-0.52 164.1-1.61 162.11-3.58 160.12-5.54 158.99-8.24 157.87-10.94 157.87-14.16L157.87-14.16Q157.87-17.41 158.98-20.12 160.09-22.83 162.07-24.78 164.05-26.73 166.78-27.81 169.52-28.88 172.76-28.88L172.76-28.88Q174.81-28.88 176.77-28.43 178.72-27.98 180.39-27.04 182.07-26.1 183.4-24.66 184.73-23.22 185.53-21.22ZM220.2-14.16L220.2-14.16Q220.2-11.96 219.61-10.03 219.03-8.11 217.99-6.47 216.95-4.83 215.49-3.53 214.02-2.22 212.27-1.32 210.53-0.42 208.54 0.07 206.55 0.56 204.45 0.56L204.45 0.56Q202.35 0.56 200.37 0.07 198.4-0.42 196.65-1.32 194.9-2.22 193.44-3.53 191.97-4.83 190.94-6.47 189.9-8.11 189.31-10.05 188.73-11.99 188.73-14.16L188.73-14.16Q188.73-16.33 189.31-18.27 189.9-20.21 190.94-21.85 191.97-23.49 193.44-24.79 194.9-26.1 196.65-27 198.4-27.91 200.37-28.39 202.35-28.88 204.45-28.88L204.45-28.88Q206.55-28.88 208.54-28.39 210.53-27.91 212.27-27 214.02-26.1 215.49-24.79 216.95-23.49 217.99-21.85 219.03-20.21 219.61-18.27 220.2-16.33 220.2-14.16ZM211.8-14.16L211.8-14.16Q211.8-15.33 211.66-16.64 211.53-17.94 211.21-19.2 210.9-20.46 210.35-21.62 209.8-22.78 208.99-23.65 208.19-24.51 207.06-25.04 205.94-25.56 204.45-25.56L204.45-25.56Q203.03-25.56 201.94-25.02 200.84-24.49 200.02-23.6 199.2-22.71 198.65-21.53 198.1-20.36 197.76-19.1 197.42-17.85 197.27-16.56 197.13-15.28 197.13-14.16L197.13-14.16Q197.13-13.04 197.27-11.76 197.42-10.47 197.76-9.2 198.1-7.93 198.65-6.77 199.2-5.62 200.02-4.72 200.84-3.83 201.94-3.3 203.03-2.76 204.45-2.76L204.45-2.76Q205.92-2.76 207.04-3.28 208.16-3.81 208.98-4.69 209.8-5.57 210.33-6.71 210.87-7.86 211.2-9.13 211.53-10.4 211.66-11.69 211.8-12.99 211.8-14.16ZM254.23-16.16L254.23-16.16Q254.23-13.31 253.53-10.21 252.84-7.1 251.59-4.13 250.35-1.15 248.61 1.48 246.88 4.1 244.8 6.01L244.8 6.01 241.7 4.32Q242.36 3.1 242.95 1.59 243.53 0.07 244.01-1.62 244.49-3.32 244.87-5.13 245.24-6.93 245.5-8.7 245.76-10.47 245.89-12.15 246.02-13.82 246.02-15.26L246.02-15.26Q246.02-16.21 245.95-17.3 245.88-18.38 245.65-19.47 245.41-20.56 245.02-21.56 244.63-22.56 243.99-23.32 243.34-24.07 242.42-24.54 241.51-25 240.26-25L240.26-25Q239.04-25 238.09-24.45 237.14-23.9 236.41-23.01 235.67-22.12 235.15-20.97 234.62-19.82 234.29-18.62 233.96-17.41 233.82-16.24 233.67-15.06 233.67-14.14L233.67-14.14 233.67 0 225.4 0 225.4-28.2 228.57-28.2 232.35-21.63Q233.04-23.27 234.06-24.61 235.09-25.95 236.38-26.9 237.68-27.86 239.25-28.37 240.82-28.88 242.66-28.88L242.66-28.88Q245.59-28.88 247.76-27.93 249.93-26.98 251.37-25.28 252.81-23.58 253.52-21.25 254.23-18.92 254.23-16.16ZM270-24.93L270 0 261.72 0 261.72-24.93 256.59-24.93 256.59-28.2 261.72-28.2 261.72-38.57 270-38.57 270-28.2 278.54-28.2 278.54-24.93 270-24.93ZM306.35-25.71L306.35-25.71 301.71-18.02Q301.42-18.99 300.95-20.21 300.49-21.44 299.8-22.5 299.12-23.56 298.17-24.28 297.22-25 295.97-25L295.97-25Q294.82-25 293.98-24.41 293.14-23.83 292.55-22.89 291.97-21.95 291.59-20.76 291.21-19.58 291-18.37 290.8-17.16 290.72-16.05 290.65-14.94 290.65-14.14L290.65-14.14 290.65 0 282.37 0 282.37-28.2 285.55-28.2 288.89-21.63Q289.57-23.22 290.45-24.55 291.33-25.88 292.48-26.84 293.63-27.81 295.08-28.34 296.53-28.88 298.36-28.88L298.36-28.88Q299.32-28.88 300.49-28.72 301.66-28.56 302.78-28.19 303.91-27.81 304.86-27.2 305.81-26.59 306.35-25.71ZM338.84-14.16L338.84-14.16Q338.84-11.96 338.25-10.03 337.67-8.11 336.63-6.47 335.59-4.83 334.13-3.53 332.66-2.22 330.92-1.32 329.17-0.42 327.18 0.07 325.19 0.56 323.09 0.56L323.09 0.56Q320.99 0.56 319.02 0.07 317.04-0.42 315.29-1.32 313.55-2.22 312.08-3.53 310.62-4.83 309.58-6.47 308.54-8.11 307.96-10.05 307.37-11.99 307.37-14.16L307.37-14.16Q307.37-16.33 307.96-18.27 308.54-20.21 309.58-21.85 310.62-23.49 312.08-24.79 313.55-26.1 315.29-27 317.04-27.91 319.02-28.39 320.99-28.88 323.09-28.88L323.09-28.88Q325.19-28.88 327.18-28.39 329.17-27.91 330.92-27 332.66-26.1 334.13-24.79 335.59-23.49 336.63-21.85 337.67-20.21 338.25-18.27 338.84-16.33 338.84-14.16ZM330.44-14.16L330.44-14.16Q330.44-15.33 330.31-16.64 330.17-17.94 329.86-19.2 329.54-20.46 328.99-21.62 328.44-22.78 327.63-23.65 326.83-24.51 325.7-25.04 324.58-25.56 323.09-25.56L323.09-25.56Q321.68-25.56 320.58-25.02 319.48-24.49 318.66-23.6 317.84-22.71 317.29-21.53 316.74-20.36 316.4-19.1 316.06-17.85 315.91-16.56 315.77-15.28 315.77-14.16L315.77-14.16Q315.77-13.04 315.91-11.76 316.06-10.47 316.4-9.2 316.74-7.93 317.29-6.77 317.84-5.62 318.66-4.72 319.48-3.83 320.58-3.3 321.68-2.76 323.09-2.76L323.09-2.76Q324.56-2.76 325.68-3.28 326.8-3.81 327.62-4.69 328.44-5.57 328.98-6.71 329.51-7.86 329.84-9.13 330.17-10.4 330.31-11.69 330.44-12.99 330.44-14.16ZM352.29-32.62L352.29 0 344.04 0 344.04-41.19 347.21-41.19 352.29-32.62Z" opacity="1" transform="matrix(1,0,0,1,0,0)" fill="#336a86" class="wordmark-text-0" data-fill-palette-color="primary" id="text-0"></path></svg></g></svg></g></svg></g></svg></g><g><svg viewBox="0 0 120.55570777733428 138.80486399999998" height="138.80486399999998" width="120.55570777733428"><g><svg xmlns="http://www.w3.org/2000/svg" xmlns:xlink="http://www.w3.org/1999/xlink" version="1.1" x="0" y="0" viewBox="10.916595577540459 5 78.16740442245954 90.00001858172001" enable-background="new 0 0 100 100" xml:space="preserve" height="138.80486399999998" width="120.55570777733428" class="icon-icon-0" data-fill-palette-color="accent" id="icon-0"><g fill="#283132" data-fill-palette-color="accent"><g fill="#283132" data-fill-palette-color="accent"><path fill="#283132" d="M52.027 48.54L52.011 48.414A3 3 0 0 0 51.983 48.25L50.762 42.951 59.349 30.812C59.355 30.799 59.363 30.79 59.37 30.781L59.395 30.74C59.438 30.679 59.475 30.617 59.512 30.56L59.554 30.481A2 2 0 0 0 59.638 30.314C59.654 30.286 59.666 30.257 59.671 30.245L59.72 30.126C59.743 30.063 59.767 30 59.785 29.937 59.795 29.909 59.805 29.877 59.813 29.836 59.829 29.776 59.845 29.72 59.859 29.65 59.867 29.615 59.872 29.581 59.877 29.546L58.888 29.392 59.886 29.502 59.906 29.363 59.916 29.224 58.917 29.167 59.919 29.18 59.922 29.079C59.922 29.022 59.922 28.969 59.919 28.902 59.916 28.867 59.916 28.833 59.911 28.782 59.906 28.729 59.899 28.676 59.889 28.596L59.873 28.501 59.843 28.359 59.835 28.325 59.809 28.221C59.793 28.171 59.778 28.12 59.768 28.092A2 2 0 0 0 59.708 27.928C59.691 27.89 59.676 27.849 59.667 27.833L59.588 27.663 59.534 27.565 59.449 27.42C59.43 27.392 59.411 27.363 59.38 27.322 59.352 27.278 59.321 27.237 59.279 27.18L59.197 27.085 58.444 27.743 59.171 27.053 59.1 26.972A4 4 0 0 0 58.73 26.644C58.709 26.628 58.691 26.613 58.67 26.6L58.602 26.553C58.568 26.528 58.527 26.505 58.478 26.474A1 1 0 0 0 58.381 26.417C58.352 26.397 58.32 26.382 58.263 26.354 58.227 26.338 58.193 26.32 58.158 26.304L40.193 18.713 33.241 6.519A3.01 3.01 0 0 0 30.63 5 3.007 3.007 0 0 0 28.021 9.492L35.5 22.615A3.02 3.02 0 0 0 37.312 24.023L52.313 30.358 45.081 40.579 45.037 40.648 44.957 40.774C44.935 40.811 44.916 40.846 44.881 40.909L44.819 41.035A3 3 0 0 0 44.699 41.332C44.683 41.373 44.671 41.414 44.655 41.464 44.642 41.505 44.633 41.543 44.621 41.593 44.611 41.634 44.6 41.679 44.589 41.736A2 2 0 0 0 44.537 42.16L44.535 42.198C44.534 42.236 44.532 42.273 44.532 42.311 44.532 42.362 44.535 42.412 44.537 42.468L44.548 42.607A4 4 0 0 0 44.591 42.897L45.465 46.687 24.372 52.396 24.315 52.415C24.266 52.431 24.217 52.446 24.17 52.463L24.134 52.475C24.101 52.488 24.07 52.497 24.047 52.507 23.993 52.528 23.94 52.554 23.9 52.572 23.855 52.594 23.811 52.613 23.782 52.629L23.657 52.698C23.607 52.73 23.556 52.759 23.512 52.79A2 2 0 0 0 23.391 52.875C23.351 52.903 23.313 52.932 23.284 52.954 23.254 52.979 23.222 53.004 23.194 53.032L23.859 53.779 23.166 53.057C23.135 53.085 23.102 53.114 23.056 53.158 23.031 53.183 23.009 53.209 22.982 53.237 22.946 53.275 22.91 53.316 22.874 53.357 22.846 53.391 22.82 53.422 22.794 53.458L23.589 54.066 22.767 53.492C22.746 53.524 22.723 53.553 22.701 53.584L22.626 53.7 23.477 54.226 22.608 53.728C22.587 53.763 22.567 53.794 22.551 53.823L22.472 53.977 22.421 54.084C22.402 54.125 22.387 54.169 22.369 54.213L22.317 54.352C22.301 54.4 22.289 54.447 22.266 54.529 22.257 54.57 22.245 54.607 22.241 54.63 22.23 54.674 22.222 54.722 22.21 54.794 22.2 54.844 22.194 54.895 22.187 54.951L22.176 55.061A3 3 0 0 0 22.168 55.225L22.166 55.294C22.166 67.518 32.112 77.464 44.336 77.464A3.01 3.01 0 0 0 47.34 74.461 3.01 3.01 0 0 0 44.336 71.456C36.315 71.456 29.44 65.413 28.331 57.55L49.814 51.734C49.854 51.725 49.893 51.713 49.943 51.697 49.986 51.68 50.029 51.669 50.07 51.656 50.117 51.636 50.166 51.618 50.202 51.599L50.353 51.536C50.391 51.517 50.428 51.495 50.495 51.461 50.534 51.439 50.574 51.416 50.598 51.4 50.644 51.376 50.689 51.343 50.732 51.315 50.77 51.29 50.806 51.261 50.852 51.23 50.893 51.199 50.932 51.168 50.961 51.142A2 2 0 0 0 51.084 51.035L51.179 50.944 51.28 50.837C51.315 50.799 51.346 50.758 51.367 50.736 51.397 50.701 51.424 50.663 51.463 50.613A4 4 0 0 0 51.63 50.361L51.704 50.225C51.722 50.19 51.74 50.156 51.756 50.121 51.777 50.08 51.794 50.035 51.817 49.988L51.861 49.872C51.88 49.827 51.894 49.783 51.912 49.724 51.928 49.677 51.941 49.626 51.952 49.588A4 4 0 0 0 52.012 49.302C52.02 49.251 52.025 49.198 52.031 49.148 52.038 49.097 52.041 49.05 52.044 48.994 52.047 48.943 52.047 48.892 52.047 48.855A2 2 0 0 0 52.047 48.712C52.037 48.666 52.034 48.619 52.027 48.54M23.286 54.607" data-fill-palette-color="accent"></path><path fill="#283132" d="M29.76 25.637A2.97 2.97 0 0 0 30.22 23.384 2.97 2.97 0 0 0 28.953 21.468 3 3 0 0 0 24.782 22.274C23.453 24.244 21.67 25.689 19.759 26.351 18.16 26.906 16.676 26.811 15.601 26.083A3 3 0 0 0 11.429 26.892 3.01 3.01 0 0 0 12.238 31.063 9.5 9.5 0 0 0 14.333 32.13 10 10 0 0 0 17.764 32.72H17.766C19.062 32.72 20.395 32.487 21.725 32.027 24.854 30.944 27.709 28.677 29.76 25.637" data-fill-palette-color="accent"></path><path fill="#283132" d="M62.27 54.844A3.24 3.24 0 0 0 59.961 53.887C59.088 53.887 58.269 54.227 57.651 54.844A3.24 3.24 0 0 0 56.696 57.154C56.696 58.027 57.034 58.846 57.651 59.464A9.08 9.08 0 0 1 60.332 65.929 9.1 9.1 0 0 1 57.651 72.394 3.24 3.24 0 0 0 56.696 74.704C56.696 75.576 57.034 76.395 57.651 77.013A3.26 3.26 0 0 0 59.961 77.968C60.833 77.968 61.652 77.627 62.27 77.013 65.232 74.052 66.864 70.114 66.864 65.93S65.231 57.806 62.27 54.844" data-fill-palette-color="accent"></path><path fill="#283132" d="M69.754 47.797A3.25 3.25 0 0 0 67.446 46.842C66.573 46.842 65.753 47.183 65.136 47.797A3.25 3.25 0 0 0 64.178 50.106C64.178 50.979 64.519 51.798 65.136 52.416 69.039 56.319 71.188 61.502 71.188 67.016 71.188 72.526 69.04 77.711 65.136 81.616A3.27 3.27 0 0 0 65.136 86.234 3.25 3.25 0 0 0 67.446 87.189C68.317 87.189 69.137 86.848 69.754 86.234 74.891 81.095 77.72 74.272 77.72 67.016S74.891 52.935 69.754 47.797" data-fill-palette-color="accent"></path><path fill="#283132" d="M77.878 39.986A3.25 3.25 0 0 0 75.569 39.028 3.268 3.268 0 0 0 73.261 44.601C79.252 50.593 82.552 58.555 82.552 67.014S79.252 83.434 73.261 89.423A3.27 3.27 0 0 0 73.26 94.042 3.24 3.24 0 0 0 75.571 95 3.24 3.24 0 0 0 77.878 94.043C85.105 86.818 89.084 77.219 89.084 67.015S85.104 47.211 77.878 39.986" data-fill-palette-color="accent"></path></g></g></svg></g></svg></g></svg></g><defs></defs></svg><rect width="395.52" height="103.86094818848282" fill="none" stroke="none" visibility="hidden"></rect></g></svg></g></svg>